<svg xmlns="http://www.w3.org/2000/svg" width="183.281" height="24.019" viewBox="0 0 183.281 24.019">
    <defs>
        <clipPath id="89b1jms9ya">
            <path data-name="사각형 147" style="fill:none" d="M0 0h183.281v24.019H0z"/>
        </clipPath>
    </defs>
    <g data-name="그룹 156">
        <g data-name="그룹 155" style="clip-path:url(#89b1jms9ya)">
            <path data-name="사각형 146" d="M.26 0h4.484A.26.26 0 0 1 5 .26v22.795a.259.259 0 0 1-.259.259H.259A.259.259 0 0 1 0 23.055V.26A.26.26 0 0 1 .26 0z" transform="translate(125.83 .265)" style="fill:#000e11"/>
            <path data-name="패스 64" d="M53.218 1.131a.069.069 0 0 0-.069.069v4.249a.069.069 0 0 0 .069.069H62.1a.232.232 0 0 1 .231.231v18.627a.069.069 0 0 0 .069.069h2.245a2.693 2.693 0 0 0 2.69-2.69V5.749a.232.232 0 0 1 .231-.231h8.884a.069.069 0 0 0 .069-.069V1.2a.069.069 0 0 0-.069-.069z" transform="translate(-39.036 -.831)" style="fill:#000e11"/>
            <path data-name="패스 65" d="M517.367 1.066a5.821 5.821 0 0 0-5.815 5.815v11.476a5.822 5.822 0 0 0 5.815 5.815h15.252a.069.069 0 0 0 .069-.069V21.79a2.093 2.093 0 0 0-2.088-2.09h-12.377a1.665 1.665 0 0 1-1.664-1.664V6.972a1.494 1.494 0 0 1 1.492-1.492H530.6a2.093 2.093 0 0 0 2.091-2.09V1.135a.069.069 0 0 0-.069-.069z" transform="translate(-375.718 -.783)" style="fill:#000e11"/>
            <path data-name="패스 66" d="M370.9 5.582h10.69a1.494 1.494 0 0 1 1.492 1.492v15.055a2.093 2.093 0 0 0 2.091 2.091h2.861a.07.07 0 0 0 .069-.069V6.945a5.821 5.821 0 0 0-5.815-5.814h-12.312a5.821 5.821 0 0 0-5.815 5.814v17.2a.07.07 0 0 0 .069.069h2.919a2.093 2.093 0 0 0 2.091-2.091V7.246a1.665 1.665 0 0 1 1.66-1.664" transform="translate(-267.464 -.831)" style="fill:#000e11"/>
            <path data-name="패스 67" d="M610.536 19.7a2.093 2.093 0 0 0-2.091 2.091V24.1a.07.07 0 0 0 .069.069h15.306a5.42 5.42 0 0 0 5.414-5.414V15.8a5.421 5.421 0 0 0-5.414-5.415h-10.479A1.183 1.183 0 0 1 612.16 9.2V6.721a1.183 1.183 0 0 1 1.182-1.181h12.206a2.093 2.093 0 0 0 2.09-2.09V1.134a.069.069 0 0 0-.069-.069h-14.975a5.42 5.42 0 0 0-5.414 5.414v2.962a5.42 5.42 0 0 0 5.414 5.414h10.478a1.183 1.183 0 0 1 1.181 1.181v2.479a1.183 1.183 0 0 1-1.181 1.181z" transform="translate(-445.953 -.782)" style="fill:#000e11"/>
            <path data-name="패스 68" d="M18.055 1.131h-4.748a.288.288 0 0 0-.288.288v5.513a.175.175 0 0 0 .258.154l4.847-2.929a.415.415 0 0 0 .219-.366V1.419a.288.288 0 0 0-.288-.288" transform="translate(-9.562 -.831)" style="fill:#ea6000"/>
            <path data-name="패스 69" d="M272.486 0h-11.693a6.315 6.315 0 0 0-6.315 6.315v11.358a6.315 6.315 0 0 0 6.315 6.315h11.693a6.315 6.315 0 0 0 6.315-6.315V6.315A6.315 6.315 0 0 0 272.486 0m1.31 17.019a2.5 2.5 0 0 1-2.5 2.5h-9.315a2.5 2.5 0 0 1-2.5-2.5V6.912a2.5 2.5 0 0 1 2.5-2.5h9.319a2.5 2.5 0 0 1 2.5 2.5z" transform="translate(-186.905)" style="fill:#000e11"/>
            <path data-name="패스 70" d="M8.519 17.518.136 22.539a.246.246 0 0 0-.136.2v.124a.178.178 0 0 0 .178.178h3.279V36.87h3.022a2.3 2.3 0 0 0 2.3-2.3V17.675a.178.178 0 0 0-.262-.157" transform="translate(0 -12.851)" style="fill:#000e11"/>
            <path data-name="패스 71" d="M172.865 14.933c2.346.051 4.02-1.552 4.968-3.469a8.061 8.061 0 0 0 .74-5.106 6.492 6.492 0 0 0-2.861-4.23C173.867.989 171.57.966 169.4.977l-12.169.057V5.41l12.569-.026a5.785 5.785 0 0 1 1.962.222 2.889 2.889 0 0 1 1.848 2.183 2.789 2.789 0 0 1-1.049 2.649 5.422 5.422 0 0 1-3.352.7l-7.819-.08c-1.264-.013-2.71.054-3.511 1.032a4.292 4.292 0 0 0-.643 2.774v9.467h5v-8.858l4.354-.006a.956.956 0 0 1 1 .566l4.074 5.868a5.446 5.446 0 0 0 2.393 2.263 5.407 5.407 0 0 0 1.918.2l3.636-.065z" transform="translate(-115.482 -.716)" style="fill:#000e11"/>
        </g>
    </g>
</svg>
